HIERARCHY
ROOT root
{
	OFFSET 0.000000 0.000000 0.000000
	CHANNELS 6 Xposition Yposition Zposition Zrotation Yrotation Xrotation
	JOINT lhip
	{
		OFFSET 0.058581 -0.082280 -0.017664
		CHANNELS 3 Zrotation Yrotation Xrotation
		JOINT lknee
		{
			OFFSET 0.043451 -0.386469 0.008037
			CHANNELS 3 Zrotation Yrotation Xrotation
			JOINT lankle
			{
				OFFSET -0.014790 -0.426874 -0.037428
				CHANNELS 3 Zrotation Yrotation Xrotation
				JOINT ltoe
				{
					OFFSET 0.041054 -0.060286 0.122042
					CHANNELS 3 Zrotation Yrotation Xrotation
					End Site
					{
						OFFSET 0.000000 0.000000 0.000000
					}
				}
			}
		}
	}
	JOINT rhip
	{
		OFFSET -0.060310 -0.090513 -0.013543
		CHANNELS 3 Zrotation Yrotation Xrotation
		JOINT rknee
		{
			OFFSET -0.043257 -0.383688 -0.004843
			CHANNELS 3 Zrotation Yrotation Xrotation
			JOINT rankle
			{
				OFFSET 0.019056 -0.420046 -0.034562
				CHANNELS 3 Zrotation Yrotation Xrotation
				JOINT rtoe
				{
					OFFSET -0.034840 -0.062106 0.130323
					CHANNELS 3 Zrotation Yrotation Xrotation
					End Site
					{
						OFFSET 0.000000 0.000000 0.000000
					}
				}
			}
		}
	}
	JOINT lowerback
	{
		OFFSET 0.004439 0.124404 -0.038385
		CHANNELS 3 Zrotation Yrotation Xrotation
		JOINT upperback
		{
			OFFSET 0.004488 0.137956 0.026820
			CHANNELS 3 Zrotation Yrotation Xrotation
			JOINT chest
			{
				OFFSET -0.002265 0.056032 0.002855
				CHANNELS 3 Zrotation Yrotation Xrotation
				JOINT lowerneck
				{
					OFFSET -0.013390 0.211636 -0.033468
					CHANNELS 3 Zrotation Yrotation Xrotation
					JOINT upperneck
					{
						OFFSET 0.010113 0.088937 0.050410
						CHANNELS 3 Zrotation Yrotation Xrotation
						End Site
						{
							OFFSET 0.000000 0.000000 0.000000
						}
					}
				}
				JOINT lclavicle
				{
					OFFSET 0.071702 0.114000 -0.018898
					CHANNELS 3 Zrotation Yrotation Xrotation
					JOINT lshoulder
					{
						OFFSET 0.122921 0.045205 -0.019046
						CHANNELS 3 Zrotation Yrotation Xrotation
						JOINT lelbow
						{
							OFFSET 0.255332 -0.015649 -0.022946
							CHANNELS 3 Zrotation Yrotation Xrotation
							JOINT lwrist
							{
								OFFSET 0.265709 0.012698 -0.007375
								CHANNELS 3 Zrotation Yrotation Xrotation
								End Site
								{
									OFFSET 0.000000 0.000000 0.000000
								}
							}
						}
					}
				}
				JOINT rclavicle
				{
					OFFSET -0.082954 0.112472 -0.023707
					CHANNELS 3 Zrotation Yrotation Xrotation
					JOINT rshoulder
					{
						OFFSET -0.113228 0.046853 -0.008472
						CHANNELS 3 Zrotation Yrotation Xrotation
						JOINT relbow
						{
							OFFSET -0.260127 -0.014369 -0.031269
							CHANNELS 3 Zrotation Yrotation Xrotation
							JOINT rwrist
							{
								OFFSET -0.269108 0.006794 -0.006027
								CHANNELS 3 Zrotation Yrotation Xrotation
								End Site
								{
									OFFSET 0.000000 0.000000 0.000000
								}
							}
						}
					}
				}
			}
		}
	}
}
MOTION
Frames: 10
Frame Time: 0.033333
0.373714 0.228809 0.970391 69.211463 -9.058596 88.285982 -3.383038 12.295695 -0.627246 -2.209816 14.438034 20.844614 0.066460 2.700557 -17.610383 0.000000 -0.000000 0.000000 -18.938159 2.722207 -17.400700 -2.749411 3.769389 31.447642 8.822490 7.864312 -15.862131 0.000000 -0.000000 0.000000 12.308597 -8.987966 12.464394 14.071616 -13.306957 2.039644 5.542817 0.630157 -3.366464 -12.255933 21.990213 -16.714059 -11.152795 4.672414 -2.884728 10.505971 -37.251874 -20.475953 -65.795340 -57.675840 29.092642 7.599530 -60.666463 23.188001 1.924971 -24.454468 15.599498 12.583514 23.406483 2.780564 53.847084 33.522585 6.524635 -104.536876 39.032050 -96.415989 -25.323265 12.177384 -40.742916 
0.378319 0.229751 0.966478 69.289229 -8.726251 87.280717 -2.749804 12.436147 -0.113315 -2.033622 14.547238 22.819419 0.375726 2.676705 -19.022336 0.000000 -0.000000 0.000000 -18.742410 2.599417 -16.670470 -2.516486 3.953348 32.686056 8.345223 8.087835 -17.083234 0.000000 -0.000000 0.000000 11.968343 -8.594759 10.649271 14.184205 -13.852313 3.179245 5.147001 0.564964 -3.898427 -12.094805 22.133049 -16.361454 -11.620735 4.683166 -2.080736 11.393694 -36.837813 -21.168907 -63.380191 -58.810903 27.473781 11.827317 -64.773600 19.547483 2.947959 -25.919731 15.731270 12.048253 23.384626 1.306897 51.654041 34.415153 6.092962 -110.788781 38.372765 -99.765375 -22.691157 14.275375 -38.571027 
0.382501 0.229956 0.962569 69.328078 -8.287636 86.307060 -1.999544 12.552435 0.430302 -2.090804 14.218132 24.554155 0.505086 3.190029 -20.403902 0.000000 -0.000000 0.000000 -18.427129 2.511650 -16.000321 -2.109906 4.238473 33.871654 7.969649 7.930294 -18.209527 0.000000 -0.000000 0.000000 11.660928 -8.130661 8.978174 13.912810 -13.472131 2.072741 4.763336 0.146860 -2.475945 -11.693673 21.862284 -14.952639 -11.841164 4.480501 -2.018173 12.099128 -36.879319 -21.083402 -58.555543 -60.577453 23.880356 17.342625 -68.332569 14.398745 5.543961 -27.535631 15.958167 11.178723 23.262787 0.157889 47.848414 36.241285 4.044119 -116.137373 38.236519 -102.539747 -25.609145 15.198494 -35.642846 
0.386865 0.229720 0.960070 69.642878 -7.721865 85.089968 -1.132110 12.668109 1.305343 -2.053210 13.582833 26.186801 0.581113 3.601803 -21.750366 0.000000 -0.000000 0.000000 -17.887676 2.437010 -14.729637 -1.864163 4.351072 34.671995 7.776715 7.622716 -19.340122 0.000000 -0.000000 0.000000 11.284352 -8.273702 7.955009 13.414293 -13.210949 1.449352 4.384443 0.371339 -2.047636 -10.917163 21.328940 -14.400720 -12.004720 4.831617 -0.702842 13.274533 -35.658992 -22.028878 -55.686105 -61.825851 21.715701 25.067953 -71.415044 6.900222 7.252658 -29.091987 15.943876 9.788094 22.796944 -2.092591 44.545663 37.823194 3.159276 -120.104823 38.628686 -104.837564 -24.800943 16.545298 -32.776263 
0.391467 0.228970 0.957607 70.193496 -6.925124 84.077359 -0.072313 12.718542 2.012806 -1.964005 12.798919 27.623023 0.628988 3.916888 -22.867641 0.000000 -0.000000 0.000000 -17.165460 2.259601 -13.473479 -1.568328 4.216277 35.290653 7.301921 7.180404 -20.310142 0.000000 -0.000000 0.000000 10.876376 -8.165959 5.864574 12.928738 -13.256732 1.767759 3.961152 0.416167 -2.089382 -9.862541 20.593603 -12.267227 -11.960669 5.198112 -0.223039 14.117433 -34.687994 -22.315402 -50.267845 -62.682862 17.247466 36.873469 -73.498226 -4.307081 8.386964 -30.782499 15.462385 7.816434 23.046195 -3.624920 39.776859 39.509801 0.668988 -122.379008 39.369780 -105.815394 -24.050817 18.704795 -31.910962 
0.396064 0.227568 0.957251 70.863709 -6.134054 83.190444 0.885193 12.587651 2.925099 -1.832752 11.961625 28.372781 0.714523 5.042476 -23.238160 0.000000 -0.000000 0.000000 -16.328372 2.032668 -12.045133 -1.159819 4.402380 35.344790 6.904905 6.358381 -20.902210 0.000000 -0.000000 0.000000 10.978543 -8.419321 3.687572 11.785687 -13.239549 2.089299 3.623229 -0.048165 -3.248545 -9.543412 18.697178 -8.097804 -11.083227 6.714317 -1.008796 14.080523 -33.453389 -22.704826 -44.586208 -61.198715 12.456561 49.748379 -75.551115 -16.928129 12.002872 -29.662989 15.160097 5.530560 24.931783 -3.707803 33.745403 40.541955 -3.186362 -123.228710 40.771135 -105.976819 -24.443274 19.065770 -27.944594 
0.400454 0.225687 0.957018 71.688003 -5.238184 82.652635 1.861291 12.324115 3.600725 -1.848170 10.870726 28.570924 0.325857 5.617014 -23.351542 0.000000 -0.000000 0.000000 -15.457314 1.936363 -10.815545 -0.838919 4.117971 35.125888 6.762762 5.634500 -21.227901 0.000000 -0.000000 0.000000 10.199921 -8.079635 1.218242 11.197008 -13.251372 2.407492 3.203626 0.048460 -3.307712 -8.286055 17.767389 -5.364516 -10.570950 6.233936 -1.064253 15.002739 -32.650410 -22.832273 -36.142987 -61.223041 5.889670 61.587465 -74.621616 -30.258454 13.924649 -30.888014 15.630227 2.666242 24.802210 -5.752983 27.029432 41.604013 -6.664130 -122.657916 42.923896 -106.253008 -27.600464 19.695976 -27.106173 
0.405277 0.222584 0.958320 72.457120 -4.306164 82.818491 2.784488 11.925550 3.881459 -2.136283 9.697001 27.856969 0.046454 6.328091 -22.969712 0.000000 -0.000000 0.000000 -14.437469 1.684778 -9.984236 -0.392397 4.118335 34.333304 6.650432 4.552664 -21.284720 0.000000 -0.000000 0.000000 8.963350 -7.652837 -0.844822 10.724614 -13.004377 1.595412 2.943095 0.998518 -2.552919 -6.660565 16.462393 -4.400045 -9.446999 5.425718 -0.183944 17.535615 -31.847954 -23.751264 -29.382597 -61.533175 0.045893 68.817922 -71.790320 -38.464338 16.363371 -32.412830 16.179388 -2.044778 23.722684 -8.269502 21.382169 40.857102 -10.758633 -121.677553 43.763857 -105.490796 -26.731952 20.030622 -27.075189 
0.410048 0.217972 0.962313 73.103521 -3.695187 83.389284 3.387479 11.510268 4.552005 -2.663491 8.531845 25.613081 -0.408510 6.993351 -22.259950 0.000000 -0.000000 0.000000 -13.590022 1.451893 -9.135146 0.050543 4.446198 32.642048 6.863736 3.281508 -20.867813 0.000000 -0.000000 0.000000 8.026016 -7.354300 -3.442433 9.674678 -12.392868 0.845852 2.539433 0.852278 -2.050513 -5.727221 14.321535 -2.641563 -8.169359 5.794750 -0.007402 18.523575 -30.331526 -24.028545 -22.867862 -61.059763 -5.128346 71.837285 -69.323556 -43.360912 19.329000 -32.990972 14.606192 -6.081209 22.785324 -10.947906 16.937833 41.035657 -12.624299 -118.891867 45.163314 -103.712364 -26.518421 20.569652 -25.577404 
0.415263 0.212379 0.968328 73.766394 -3.209763 84.651284 3.721013 10.826086 4.972183 -3.087340 7.587903 22.404464 -0.879676 7.402280 -20.785801 0.000000 -0.000000 0.000000 -12.902526 1.205087 -8.557528 0.414711 4.515401 30.112554 7.222334 2.240334 -19.987010 0.000000 -0.000000 0.000000 7.084103 -6.933839 -6.847284 8.401316 -11.823013 0.396023 1.995980 0.840005 -1.712045 -4.629268 12.173715 -0.460389 -6.527246 5.960777 0.019487 19.831612 -28.899820 -24.388744 -18.331114 -60.481459 -8.778008 73.170901 -66.614508 -46.560706 22.398030 -33.154147 12.609134 -10.300214 21.624739 -12.570948 12.713314 40.716586 -15.327807 -116.210764 45.949112 -101.916245 -25.833074 19.894589 -25.103321 
